<svg width="598" height="434" viewBox="0 0 598 434" fill="none" xmlns="http://www.w3.org/2000/svg">
<path d="M72.4285 249.449C72.4285 249.449 94.5285 246.849 100.328 225.349C106.228 203.849 91.7285 195.049 94.1285 181.749C96.5285 168.449 87.6285 149.749 74.8285 150.749C60.0285 151.949 57.1285 163.149 48.6285 172.949C39.9285 183.149 41.5285 195.849 41.7285 203.049C41.9285 210.249 43.3285 216.549 42.9285 230.449C42.5285 247.349 72.4285 249.449 72.4285 249.449Z" fill="#E2D28D"/>
<path d="M66.329 274.848L69.429 228.348C69.429 228.248 69.429 228.148 69.329 228.048L57.029 212.048C56.729 211.648 57.229 211.148 57.629 211.448L69.029 220.148C69.329 220.348 69.729 220.148 69.729 219.848L71.829 184.648C71.829 184.148 72.629 184.048 72.629 184.648L74.229 201.148C74.229 201.448 74.629 201.648 74.829 201.448L80.129 197.948C80.529 197.648 81.029 198.248 80.729 198.648L74.629 206.448C74.529 206.548 74.529 206.648 74.529 206.748L75.729 234.348C75.729 234.748 76.129 234.848 76.429 234.648L88.429 225.648C88.829 225.348 89.329 225.948 89.029 226.348L76.129 242.148C76.029 242.248 76.029 242.348 76.029 242.448L77.229 274.848C77.229 275.148 77.029 275.348 76.829 275.348H66.729C66.429 275.248 66.229 275.048 66.329 274.848Z" fill="#E2D28D"/>
<path d="M501.929 259.848C501.929 259.848 479.829 257.248 474.029 235.748C468.129 214.248 482.629 205.448 480.229 192.148C477.829 178.848 486.729 160.148 499.529 161.148C514.329 162.348 517.329 173.448 525.729 183.348C534.429 193.548 532.829 206.248 532.629 213.448C532.429 220.648 531.029 226.948 531.429 240.848C531.829 257.748 501.929 259.848 501.929 259.848Z" fill="#E2D28D"/>
<path d="M508.03 285.248L504.93 238.748C504.93 238.648 504.93 238.548 505.03 238.448L517.33 222.448C517.63 222.048 517.13 221.548 516.73 221.848L505.33 230.648C505.03 230.848 504.63 230.648 504.63 230.348L502.53 195.148C502.53 194.648 501.73 194.548 501.73 195.148L500.13 211.648C500.13 211.948 499.73 212.148 499.53 211.948L494.23 208.448C493.83 208.148 493.33 208.748 493.63 209.148L499.73 216.948C499.83 217.048 499.83 217.148 499.83 217.248L498.63 244.848C498.63 245.248 498.23 245.348 497.93 245.148L485.93 236.148C485.53 235.848 485.03 236.448 485.33 236.848L498.23 252.748C498.33 252.848 498.33 252.948 498.33 253.048L497.13 285.448C497.13 285.748 497.33 285.948 497.53 285.948H507.63C507.93 285.748 508.03 285.448 508.03 285.248Z" fill="#E2D28D"/>
<path d="M535.43 218.648H35.4297V289.848H535.43V218.648Z" fill="#EAD98F"/>
<path d="M535.43 218.648H35.4297V228.248H535.43V218.648Z" fill="#DDCC83"/>
<path d="M464.03 181.547H106.83V218.647H464.03V181.547Z" fill="#EAD98F"/>
<path d="M464.03 181.547H106.83V191.147H464.03V181.547Z" fill="#DDCC83"/>
<path d="M414.929 144.344H156.029V181.444H414.929V144.344Z" fill="#EAD98F"/>
<path d="M414.929 144.344H156.029V153.944H414.929V144.344Z" fill="#DDCC83"/>
<path d="M39.7294 258.049C39.7294 258.049 68.1294 254.749 75.6294 227.149C83.1294 199.449 64.5294 188.249 67.6294 171.149C70.7294 154.049 59.3294 130.049 42.8294 131.449C23.7294 133.049 20.0294 147.349 9.12944 160.049C-1.97056 172.949 0.0294396 189.349 0.32944 198.549C0.62944 207.749 2.42944 215.949 1.82944 233.649C1.32944 255.349 39.7294 258.049 39.7294 258.049Z" fill="#E8B74D"/>
<path d="M31.8295 290.647L35.8295 230.947C35.8295 230.847 35.8295 230.647 35.7295 230.547L19.9295 210.047C19.5295 209.547 20.1295 208.847 20.6295 209.247L35.3295 220.547C35.6295 220.847 36.1295 220.547 36.2295 220.147L38.9295 174.947C38.9295 174.247 39.9295 174.247 40.0295 174.947L42.1295 196.247C42.1295 196.647 42.6295 196.947 42.9295 196.647L49.7295 192.147C50.2295 191.847 50.8295 192.447 50.4295 192.947L42.6295 202.947C42.5295 203.047 42.5295 203.147 42.5295 203.347L44.0295 238.747C44.0295 239.247 44.5295 239.447 44.9295 239.147L60.3295 227.547C60.8295 227.147 61.4295 227.847 61.0295 228.347L44.5295 248.847C44.4295 248.947 44.4295 249.047 44.4295 249.247L45.9295 290.847C45.9295 291.147 45.7295 291.447 45.4295 291.447H32.4295C32.0295 291.247 31.8295 290.947 31.8295 290.647Z" fill="#A87927"/>
<path d="M534.329 256.851C534.329 256.851 510.429 254.051 504.129 230.751C497.829 207.451 513.529 197.951 510.829 183.551C508.229 169.151 517.829 148.851 531.729 150.051C547.829 151.351 550.929 163.451 560.129 174.151C569.529 185.151 567.829 198.951 567.529 206.751C567.229 214.551 565.829 221.451 566.229 236.351C566.729 254.551 534.329 256.851 534.329 256.851Z" fill="#E8B74D"/>
<path d="M540.929 284.355L537.529 234.055C537.529 233.955 537.529 233.855 537.629 233.755L550.929 216.455C551.229 216.055 550.729 215.455 550.329 215.755L537.929 225.355C537.629 225.555 537.229 225.355 537.229 224.955L534.929 186.755C534.929 186.155 534.029 186.155 534.029 186.755L532.329 204.655C532.329 205.055 531.929 205.255 531.629 205.055L525.929 201.255C525.529 200.955 525.029 201.555 525.329 201.955L531.929 210.355C532.029 210.455 532.029 210.555 532.029 210.655L530.729 240.555C530.729 240.955 530.329 241.155 530.029 240.955L517.029 231.155C516.629 230.855 516.029 231.455 516.429 231.855L530.329 249.055C530.429 249.155 530.429 249.255 530.429 249.355L529.129 284.455C529.129 284.755 529.329 284.955 529.629 284.955H540.529C540.729 284.855 541.029 284.655 540.929 284.355Z" fill="#A87927"/>
<path d="M544.23 238.844H30.9297V246.744H66.9297V291.344H74.8297V246.744H122.63V291.344H130.53V246.744H179.13V291.344H187.03V246.744H234.83V291.344H242.73V246.744H335.73V291.344H343.63V246.744H391.43V291.344H399.33V246.744H447.93V291.344H455.93V246.744H503.63V291.344H511.53V246.744H544.23V238.844Z" fill="#C49435"/>
<path d="M165.677 72.3887C180.056 66.5504 186.979 50.1614 181.141 35.7828C175.302 21.4043 158.913 14.4811 144.535 20.3194C130.156 26.1577 123.233 42.5467 129.071 56.9253C134.91 71.3038 151.299 78.227 165.677 72.3887Z" fill="#FFC548"/>
<path d="M19.9286 38.1459C19.0286 31.3459 28.5286 25.8459 35.7286 25.2459C39.1286 24.9459 42.7286 25.4459 45.9286 24.3459C52.9286 21.8459 55.7286 12.8459 62.6286 9.94594C67.7286 7.74594 73.6286 9.74594 78.6286 12.2459C83.6286 14.7459 88.5286 17.9459 94.0286 18.2459C98.8286 18.5459 104.129 16.7459 108.329 19.1459C111.529 20.9459 113.129 24.5459 116.029 26.6459C118.829 28.7459 122.529 29.1459 126.129 29.3459C129.629 29.5459 133.329 29.5459 136.529 31.0459C139.729 32.5459 142.429 35.9459 141.729 39.3459L19.9286 38.1459Z" fill="white"/>
<path d="M284.729 92.4428C283.829 85.6428 293.329 80.1428 300.529 79.5428C303.929 79.2428 307.529 79.7428 310.729 78.6428C317.729 76.1428 320.529 67.1428 327.429 64.2428C332.529 62.0428 338.429 64.0428 343.429 66.5428C348.429 69.0428 353.329 72.2428 358.829 72.5428C363.629 72.8428 368.929 71.0428 373.129 73.4428C376.329 75.2428 377.929 78.8428 380.829 80.9428C383.629 83.0428 387.329 83.4428 390.929 83.6428C394.429 83.8428 398.129 83.8428 401.329 85.3428C404.529 86.8428 407.229 90.2428 406.529 93.6428L284.729 92.4428Z" fill="white"/>
<path d="M475.429 29.1459C474.529 22.3459 484.029 16.8459 491.229 16.2459C494.629 15.9459 498.229 16.4459 501.429 15.3459C508.429 12.8459 511.229 3.84594 518.129 0.945941C523.229 -1.25406 529.129 0.745942 534.129 3.24594C539.129 5.74594 544.029 8.94594 549.529 9.24594C554.329 9.54594 559.629 7.74594 563.829 10.1459C567.029 11.9459 568.629 15.5459 571.529 17.6459C574.329 19.7459 578.029 20.1459 581.629 20.3459C585.129 20.5459 588.829 20.5459 592.029 22.0459C595.229 23.5459 597.929 26.9459 597.229 30.3459L475.429 29.1459Z" fill="white"/>
<mask id="mask0_3367_107" style="mask-type:alpha" maskUnits="userSpaceOnUse" x="35" y="306" width="502" height="128">
<ellipse cx="285.529" cy="369.648" rx="250.5" ry="63.5" fill="#D9D9D9"/>
</mask>
<g mask="url(#mask0_3367_107)">
<path d="M535.43 281.445H35.4297V476.145H535.43V281.445Z" fill="#E8B74D"/>
<path opacity="0.7" d="M545.828 343.445H31.3281V351.545H545.828V343.445Z" fill="white"/>
<path opacity="0.7" d="M545.828 418.445H31.3281V426.545H545.828V418.445Z" fill="white"/>
<path d="M287.93 476.144L445.73 281.344H470.93L313.53 476.144H287.93Z" fill="white"/>
</g>
<path d="M211.93 408.342C289.526 408.342 352.43 398.806 352.43 387.042C352.43 375.279 289.526 365.742 211.93 365.742C134.334 365.742 71.4297 375.279 71.4297 387.042C71.4297 398.806 134.334 408.342 211.93 408.342Z" fill="#D19D42"/>
<path d="M386.829 305.944C398.317 305.944 407.629 303.347 407.629 300.144C407.629 296.94 398.317 294.344 386.829 294.344C375.342 294.344 366.029 296.94 366.029 300.144C366.029 303.347 375.342 305.944 386.829 305.944Z" fill="#D19D42"/>
<path d="M387.83 108.947C387.83 108.947 406.73 98.3472 419.53 107.747C432.33 117.247 449.73 112.747 454.93 107.747V147.447C454.93 147.447 440.73 154.347 423.73 147.647C406.73 141.047 393.03 144.547 389.23 147.847L387.83 108.947Z" fill="#D6271A"/>
<path d="M392.93 95.4484C392.93 98.3484 390.53 100.748 387.63 100.748C384.73 100.748 382.33 98.3484 382.33 95.4484C382.33 92.5484 384.73 90.1484 387.63 90.1484C390.53 90.1484 392.93 92.5484 392.93 95.4484Z" fill="#374A66"/>
<path d="M417.83 117.749C417.53 116.949 421.93 129.049 440.43 131.949C440.43 131.949 422.93 131.949 417.83 117.749Z" fill="#721816"/>
<path d="M408.331 119.249C408.131 118.549 410.631 130.049 423.731 131.849C423.731 131.849 411.131 132.949 408.331 119.249Z" fill="#721816"/>
<path d="M390.03 96.8516H385.23V300.252H390.03V96.8516Z" fill="#374A66"/>
<path d="M321.93 378.944C321.93 378.944 327.03 380.044 330.13 380.744C333.33 381.444 336.63 384.944 337.83 382.544C337.83 382.544 342.13 383.744 339.53 380.544C336.93 377.344 333.23 374.044 330.73 373.744C328.13 373.444 326.53 370.444 326.53 370.144C326.53 369.844 326.33 316.544 326.33 316.544L325.43 280.444L302.33 265.344L311.63 316.944L314.93 370.044C314.93 370.044 314.53 373.744 312.73 376.044C310.93 378.344 311.53 379.444 309.73 381.444C308.03 383.344 310.03 384.344 312.23 382.844C314.43 381.344 317.03 378.644 318.03 378.544C319.03 378.544 321.93 378.944 321.93 378.944Z" fill="#D16254"/>
<path d="M327.43 375.742C327.43 375.742 336.03 379.642 337.83 382.642" stroke="#753F31" stroke-width="0.5" stroke-miterlimit="10" stroke-linecap="round"/>
<path d="M326.93 285.843C326.93 285.843 318.63 230.543 309.63 230.743C293.03 231.143 304.03 259.643 305.23 287.743L326.93 285.843Z" fill="#F4F4F4"/>
<path d="M316.629 251.744C316.229 248.244 324.029 244.444 326.329 242.044C327.129 241.244 327.929 240.444 328.629 239.844C333.429 245.944 341.829 250.744 345.829 247.944C360.429 237.344 358.429 222.944 359.229 214.344C360.029 205.644 354.729 201.144 354.729 201.144C343.029 190.244 323.129 197.244 320.129 210.444C319.429 213.444 319.229 216.144 319.429 218.744C319.429 218.744 319.429 218.744 319.429 218.844C318.729 227.144 311.629 231.744 311.629 231.744C311.729 240.744 316.629 251.744 316.629 251.744Z" fill="#DB6D58"/>
<path d="M326.23 242.148C327.03 241.348 327.83 240.548 328.53 239.948C328.53 239.948 326.13 236.748 324.83 234.148C324.83 234.148 325.23 238.048 326.23 242.148Z" fill="#825650"/>
<path d="M343.029 212.245C341.829 212.845 338.029 211.845 337.629 213.145C337.129 214.545 336.329 216.445 335.529 217.145C334.129 218.445 334.629 223.045 331.929 225.445C329.229 227.845 321.829 228.945 320.129 230.545C319.429 231.245 318.129 230.745 317.029 230.045C315.429 228.945 314.629 227.045 314.929 225.145L316.529 214.445C317.829 206.045 318.729 201.645 326.729 198.745L335.029 195.645C339.629 194.645 344.129 194.245 345.229 194.645L354.729 195.445C357.729 196.545 376.729 198.545 365.729 210.945C364.329 212.545 360.529 215.245 358.429 214.845L355.729 213.145C354.029 212.445 352.329 212.145 350.529 212.145L343.029 212.245Z" fill="#23343C"/>
<path d="M354.73 218.646C354.63 218.646 354.63 218.546 354.53 218.546C351.43 217.246 348.93 217.946 348.83 217.946C348.23 218.046 347.93 218.646 348.13 219.246C348.23 219.846 348.83 220.146 349.43 219.946C349.43 219.946 351.43 219.446 353.83 220.446C354.33 220.646 354.93 220.446 355.23 219.846C355.33 219.446 355.13 218.946 354.73 218.646Z" fill="#23343C"/>
<path d="M351.431 224.145C351.331 224.945 351.831 225.645 352.631 225.745C353.431 225.845 354.131 225.345 354.231 224.545C354.331 223.745 353.831 223.045 353.031 222.945C352.231 222.745 351.531 223.345 351.431 224.145Z" fill="#23343C"/>
<path d="M356.429 226.547C356.429 226.547 358.329 231.247 357.229 232.147C356.629 232.747 355.629 232.847 355.629 232.847" stroke="#23343C" stroke-width="0.5576" stroke-miterlimit="10" stroke-linecap="round"/>
<path d="M352.429 238.745C352.429 238.745 350.829 239.145 350.529 236.445" stroke="#23343C" stroke-width="0.5576" stroke-miterlimit="10" stroke-linecap="round"/>
<path d="M333.529 223.447C333.329 223.347 328.929 220.547 327.929 224.347C326.929 228.247 329.529 232.347 333.629 228.447L333.529 223.447Z" fill="#DB6D58"/>
<path d="M332.029 226.745C332.029 226.745 331.029 225.045 329.529 225.145" stroke="#23343C" stroke-width="0.5576" stroke-miterlimit="10" stroke-linecap="round"/>
<path d="M329.93 227.442L330.83 225.742" stroke="#23343C" stroke-width="0.5576" stroke-miterlimit="10" stroke-linecap="round"/>
<path d="M333.529 223.447C333.329 223.347 328.929 220.547 327.929 224.347C326.929 228.247 329.529 232.347 333.629 228.447" stroke="#23343C" stroke-width="0.5576" stroke-miterlimit="10" stroke-linecap="round"/>
<path d="M293.53 286.743C311.33 276.643 324.03 259.343 317.03 244.443C316.93 244.343 316.93 244.143 316.93 244.043C314.53 235.443 312.93 232.243 310.53 231.043C294.73 222.743 257.13 236.743 249.63 240.243C241.73 244.043 211.83 263.543 212.93 267.443C216.23 278.443 242.23 294.243 261.93 294.743C273.03 295.043 274.73 292.743 288.83 288.043C290.33 287.743 292.03 287.643 293.53 286.743Z" fill="white"/>
<path d="M296.229 314.844L295.029 318.644" stroke="#753F31" stroke-width="0.5" stroke-miterlimit="10" stroke-linecap="round"/>
<path d="M298.23 318.245C298.13 320.145 297.63 322.145 296.63 323.945C296.03 324.945 295.33 325.845 294.53 326.645L294.43 326.745L291.73 328.645L237.93 367.145C237.93 367.145 225.93 372.545 224.93 360.845C233.03 350.445 245.93 332.445 254.53 325.845C255.83 324.845 254.13 321.045 255.93 319.845L239.93 313.845C242.83 309.945 248.83 301.545 252.93 293.845C254.33 291.245 255.53 288.645 256.23 286.445L267.73 293.045L292.03 306.945C296.13 309.445 298.33 313.845 298.23 318.245Z" fill="#CF745B"/>
<path d="M213.63 320.642L187.43 366.442C187.23 366.842 187.03 367.142 186.73 367.442C180.73 366.842 179.23 366.642 173.23 366.042C172.93 365.442 172.73 365.042 172.63 365.042L100.53 357.042C94.7304 348.442 97.4304 342.342 97.4304 342.342C109.63 340.942 135.53 337.442 147.03 339.142C152.63 339.942 161.73 342.442 169.23 344.942L183.53 308.242C187.73 311.242 198.63 318.542 213.63 320.642Z" fill="#CF745B"/>
<path d="M299.429 319.045C297.029 307.245 294.829 305.045 294.829 305.045L224.429 266.245L216.929 262.445C206.529 266.245 196.029 274.245 190.929 288.945L184.129 303.645H184.029L183.029 306.045L182.529 307.045C182.529 307.045 182.529 307.045 182.529 307.145L167.829 341.645C167.829 341.645 145.829 332.745 111.729 339.145L110.629 360.645C110.629 360.645 177.529 375.445 182.829 372.345C186.729 370.145 206.629 336.045 216.629 321.145L221.529 310.345L222.029 309.145L223.129 309.645L254.029 320.745L226.829 352.145L244.429 364.745C244.529 364.845 301.829 330.945 299.429 319.045Z" fill="#374A66"/>
<path d="M240.931 365.048C240.931 365.048 235.531 369.048 224.831 360.148C224.831 360.148 218.731 366.948 213.231 369.148C207.631 371.348 214.231 381.748 222.531 383.548C230.831 385.348 232.931 393.948 240.431 397.148C247.831 400.348 262.431 398.348 260.031 393.748C257.631 389.248 243.131 379.748 243.431 372.448C243.831 365.048 240.931 365.048 240.931 365.048Z" fill="white"/>
<path d="M215.432 372.047C215.432 372.047 216.132 376.647 222.332 379.447C228.532 382.247 233.632 386.247 238.832 392.047C244.032 397.747 255.532 394.247 255.532 394.247" stroke="#213247" stroke-width="0.514" stroke-miterlimit="10" stroke-linecap="round"/>
<path d="M251.33 385.546C251.33 385.546 247.73 382.946 238.33 389.346" stroke="#213247" stroke-width="0.514" stroke-miterlimit="10" stroke-linecap="round"/>
<path d="M222.631 367.648C222.631 367.648 229.231 377.348 243.431 377.148" stroke="#213247" stroke-width="0.514" stroke-miterlimit="10" stroke-linecap="round"/>
<path d="M105.73 357.649C105.73 357.649 99.3299 355.849 99.7299 341.949C99.7299 341.949 90.6299 341.349 85.5299 338.249C80.4299 335.149 76.2299 346.749 79.8299 354.449C83.4299 362.149 78.0299 369.049 80.1299 376.849C82.1299 384.649 92.7299 394.949 94.8299 390.249C96.9299 385.649 95.4299 368.349 101.53 364.049C107.43 359.849 105.73 357.649 105.73 357.649Z" fill="white"/>
<path d="M84.4303 341.75C84.4303 341.75 81.2303 345.15 82.7303 351.75C84.3303 358.35 84.2303 364.85 82.9303 372.55C81.6303 380.15 91.5303 387.05 91.5303 387.05" stroke="#213247" stroke-width="0.514" stroke-miterlimit="10" stroke-linecap="round"/>
<path d="M95.9297 378.352C95.9297 378.352 95.7297 373.952 84.9297 370.352" stroke="#213247" stroke-width="0.514" stroke-miterlimit="10" stroke-linecap="round"/>
<path d="M92.429 344.75C92.429 344.75 88.829 355.85 97.729 367.05" stroke="#213247" stroke-width="0.514" stroke-miterlimit="10" stroke-linecap="round"/>
<path d="M305.529 383.444C305.529 383.444 300.729 385.444 297.729 386.644C294.729 387.944 292.129 391.944 290.529 389.844C290.529 389.844 286.529 391.844 288.529 388.144C290.529 384.544 293.529 380.644 296.029 379.944C298.529 379.144 301.029 375.544 301.029 375.244C301.029 374.944 288.429 322.944 288.429 322.944L277.629 269.844L299.929 266.344L304.629 320.744L310.929 373.544C310.929 373.544 311.929 377.144 314.229 379.044C316.429 380.944 316.029 382.244 318.129 383.844C320.229 385.444 318.329 386.744 315.929 385.644C313.429 384.544 310.529 382.344 309.429 382.544C308.329 382.544 305.529 383.444 305.529 383.444Z" fill="#DB6D58"/>
<path d="M278.53 288.845C278.53 288.845 271.53 248.745 287.63 245.645C303.93 242.545 303.83 262.045 305.23 287.645L278.53 288.845Z" fill="white"/>
<path d="M299.83 380.648C299.83 380.648 292.03 385.948 290.83 389.348" stroke="#753F31" stroke-width="0.5" stroke-miterlimit="10" stroke-linecap="round"/>
<path opacity="0.6" d="M299.43 250.047C300.43 251.647 301.33 253.647 301.93 255.847" stroke="#213247" stroke-width="0.5" stroke-miterlimit="10" stroke-linecap="round"/>
<path opacity="0.6" d="M295.53 288.149L278.43 288.849C278.43 288.849 271.43 248.749 287.53 245.649C291.03 244.949 293.73 245.349 295.93 246.549" stroke="#213247" stroke-width="0.5" stroke-miterlimit="10" stroke-linecap="round"/>
<path opacity="0.6" d="M304.43 273.148C304.73 277.648 304.93 282.548 305.23 287.748" stroke="#213247" stroke-width="0.5" stroke-miterlimit="10" stroke-linecap="round"/>
<path opacity="0.7" d="M222.13 309.042L200.93 297.742L216.73 321.042L222.13 309.042Z" fill="black"/>
<path d="M228.229 274.445C228.229 274.445 219.029 283.945 203.129 278.545" stroke="#213247" stroke-width="0.5" stroke-miterlimit="10" stroke-linecap="round"/>
<path d="M167.83 341.547L172.73 343.547" stroke="#213247" stroke-width="0.5" stroke-miterlimit="10" stroke-linecap="round"/>
<path d="M254.129 320.742H261.029" stroke="#213247" stroke-width="0.5" stroke-miterlimit="10" stroke-linecap="round"/>
<path d="M183.929 365.244C183.929 365.244 177.129 363.844 170.629 367.644" stroke="#213247" stroke-width="0.5" stroke-miterlimit="10" stroke-linecap="round"/>
<path d="M116.43 341.648L115.83 356.748" stroke="#213247" stroke-width="0.5" stroke-miterlimit="10" stroke-linecap="round"/>
<path d="M234.529 350.148L244.829 358.448" stroke="#213247" stroke-width="0.5" stroke-miterlimit="10" stroke-linecap="round"/>
<path d="M223.93 272.547C223.93 272.547 220.63 278.047 212.73 278.047" stroke="#213247" stroke-width="0.5" stroke-miterlimit="10" stroke-linecap="round"/>
<path opacity="0.6" d="M309.029 285.848L323.429 283.648" stroke="#213247" stroke-width="0.5" stroke-miterlimit="10" stroke-linecap="round"/>
</svg>
